<svg height="1463" node-id="1" sillyvg="true" template-height="1463" template-width="1200" version="1.1" viewBox="0 0 1200 1463" width="1200" xmlns="http://www.w3.org/2000/svg" xmlns:xlink="http://www.w3.org/1999/xlink"><defs node-id="34"></defs><g node-id="36"><g node-id="37"><path d="M 279.00 1440.30 L 764.70 1440.30" fill="none" group-id="1,2" id="Shape" node-id="9" stroke="#000000" stroke-linecap="round" stroke-opacity="0.05" stroke-width="8" target-height="0" target-width="485.7" target-x="279" target-y="1440.3"/></g><path d="M 566.50 151.50 L 574.50 152.60 L 583.50 154.20 L 592.50 156.40 L 601.90 159.10 L 611.00 162.20 L 619.80 165.90 L 625.50 168.60 L 635.50 174.60 L 640.00 177.90 L 643.80 181.40 L 647.00 184.90 L 649.10 187.80 L 650.60 190.80 L 651.70 193.70 L 652.40 196.80 L 652.60 199.90 L 652.30 203.10 L 651.40 206.40 L 649.90 210.00 L 648.00 213.20 L 645.40 216.70 L 641.90 220.40 L 637.50 224.40 L 633.10 227.90 L 621.10 235.60 L 609.40 242.20 L 605.80 244.90 L 602.60 247.90 L 599.80 251.20 L 596.40 255.90 L 593.60 261.10 L 591.20 266.60 L 587.80 278.40 L 586.60 284.50 L 585.30 293.90 L 584.20 312.10 L 583.80 334.70 L 583.50 338.90 L 582.40 344.30 L 572.20 336.60 L 563.50 330.80 L 553.50 324.70 L 540.40 317.40 L 531.20 312.80 L 508.70 302.80 L 496.70 298.20 L 483.40 293.70 L 468.80 289.30 L 446.40 283.80 L 434.10 281.40 L 421.10 279.20 L 408.30 277.60 L 394.80 276.30 L 380.70 275.40 L 352.80 274.50 L 340.40 273.60 L 328.70 272.10 L 317.60 270.10 L 306.40 267.50 L 296.00 264.50 L 286.30 261.10 L 277.30 257.30 L 270.10 253.80 L 263.40 250.10 L 257.20 246.30 L 251.50 242.30 L 246.20 238.10 L 241.10 233.50 L 236.50 228.70 L 232.30 223.90 L 228.70 218.90 L 225.50 213.80 L 222.70 208.40 L 220.40 202.90 L 218.60 197.30 L 217.20 191.70 L 216.40 185.80 L 216.00 180.00 L 216.20 174.10 L 216.90 168.10 L 218.20 161.90 L 220.00 155.60 L 221.60 151.60 L 226.60 142.10 L 235.10 129.70 L 240.90 122.20 L 247.80 114.20 L 262.80 98.40 L 271.30 90.10 L 289.20 74.00 L 308.40 58.10 L 328.10 43.40 L 348.10 29.90 L 367.60 18.40 L 376.90 13.50 L 385.70 9.40 L 398.80 4.30 L 410.00 1.30 L 415.70 0.40 L 420.70 0.20 L 425.00 0.50 L 428.90 1.30 L 431.90 2.40 L 434.60 3.90 L 436.90 5.80 L 438.80 8.10 L 440.60 11.00 L 441.70 13.90 L 442.60 17.30 L 443.20 21.40 L 443.30 26.30 L 442.20 43.50 L 441.90 53.90 L 442.20 63.30 L 443.00 71.60 L 444.40 80.20 L 446.10 87.90 L 448.30 94.80 L 450.80 101.00 L 453.90 107.10 L 457.30 112.50 L 460.90 117.40 L 464.80 121.70 L 469.10 125.70 L 473.60 129.30 L 478.30 132.50 L 483.20 135.40 L 490.00 138.60 L 497.00 141.30 L 504.20 143.60 L 511.60 145.40 L 526.30 147.90 L 537.30 149.20 L 566.50 151.50 Z" fill="#ff87cf" fill-rule="nonzero" group-id="1" id="Shape" node-id="10" stroke="none" target-height="344.09998" target-width="436.59998" target-x="216" target-y="0.2"/><g node-id="38"><path d="M 592.40 255.90 L 594.20 252.50 L 596.50 249.20 L 599.40 246.00 L 604.30 241.70 L 609.90 237.50 L 627.60 226.20 L 635.90 220.20 L 640.50 215.40 L 641.70 213.40 L 642.90 209.50 L 642.90 207.50 L 642.50 205.60 L 641.60 203.50 L 640.10 201.10 L 637.80 198.50 L 635.80 197.30 L 627.00 192.50 L 620.30 189.60 L 613.00 186.70 L 598.00 182.00 L 584.00 178.80 L 576.70 177.70 L 560.60 176.30 L 552.40 176.20 L 543.80 176.60 L 534.80 177.50 L 533.50 178.20 L 532.90 178.90 L 533.00 180.10 L 535.20 181.90 L 556.70 191.80 L 562.10 194.70 L 570.20 200.10 L 575.10 205.10 L 577.50 209.40 L 578.50 214.10 L 578.50 216.40 L 578.00 219.00 L 576.90 221.70 L 573.40 227.50 L 567.50 233.90 L 563.20 237.60 L 557.40 242.00 L 549.80 247.00 L 540.20 252.60 L 537.60 255.80 L 534.80 258.60 L 531.90 260.90 L 528.70 262.80 L 525.30 264.30 L 520.80 265.60 L 516.00 266.40 L 510.70 266.70 L 504.80 266.40 L 499.20 265.70 L 486.50 262.80 L 470.00 257.30 L 460.00 253.20 L 449.00 248.30 L 432.60 240.40 L 414.50 231.10 L 376.20 210.40 L 362.30 208.80 L 350.10 207.00 L 339.40 204.90 L 330.10 202.60 L 315.40 197.70 L 309.30 195.10 L 299.40 189.80 L 294.70 186.50 L 290.60 183.20 L 287.20 179.80 L 284.30 176.40 L 281.90 173.00 L 279.30 168.30 L 277.40 163.40 L 276.10 158.50 L 275.50 153.40 L 275.30 148.20 L 275.70 143.00 L 276.50 137.60 L 277.90 132.00 L 280.30 124.80 L 283.30 117.40 L 287.00 109.90 L 295.70 95.40 L 300.70 88.30 L 308.60 77.90 L 316.70 68.10 L 325.10 58.80 L 340.80 42.80 L 347.30 36.60 L 361.40 24.20 L 338.50 41.10 L 313.40 60.80 L 288.00 82.00 L 264.00 103.30 L 253.00 113.80 L 243.50 123.50 L 232.40 136.10 L 228.20 141.40 L 224.30 147.00 L 221.60 151.70 L 220.00 155.60 L 218.20 161.90 L 216.90 168.10 L 216.20 174.10 L 216.00 180.00 L 216.40 185.80 L 217.20 191.70 L 218.60 197.30 L 220.40 202.90 L 222.70 208.40 L 225.50 213.80 L 228.70 218.90 L 232.30 223.90 L 236.50 228.70 L 241.10 233.50 L 246.20 238.10 L 251.50 242.30 L 257.20 246.30 L 263.40 250.10 L 270.10 253.80 L 277.30 257.30 L 286.30 261.10 L 296.00 264.50 L 306.40 267.50 L 317.60 270.10 L 328.70 272.10 L 340.40 273.50 L 352.80 274.50 L 380.70 275.40 L 394.80 276.30 L 408.30 277.60 L 421.10 279.20 L 434.10 281.40 L 446.30 283.80 L 468.80 289.30 L 483.40 293.70 L 496.70 298.20 L 508.70 302.80 L 531.20 312.80 L 540.40 317.40 L 553.50 324.70 L 563.50 330.80 L 572.20 336.60 L 582.40 344.30 L 580.00 336.00 L 578.70 326.00 L 578.40 319.20 L 578.70 311.90 L 579.40 304.00 L 582.10 288.30 L 584.10 280.10 L 589.20 263.90 L 592.40 255.90 Z" fill="#6e6e96" fill-opacity="0.15" fill-rule="nonzero" group-id="1,3" id="Shape" node-id="11" stroke="none" target-height="320.09998" target-width="426.90002" target-x="216" target-y="24.2"/></g><path d="M 388.30 1222.20 L 401.60 1233.10 L 415.70 1246.20 L 423.60 1254.40 L 438.00 1270.80 L 449.80 1286.20 L 455.50 1294.40 L 466.40 1312.40 L 471.40 1321.80 L 476.10 1331.80 L 480.40 1342.20 L 483.30 1350.10 L 488.20 1366.70 L 490.10 1375.30 L 491.70 1384.00 L 492.80 1392.90 L 493.50 1402.00 L 493.70 1429.80 L 493.70 1411.40 L 543.60 1411.40 L 551.90 1376.40 L 561.10 1342.60 L 568.60 1318.30 L 576.90 1294.90 L 584.20 1277.60 L 590.10 1266.30 L 593.40 1261.20 L 596.40 1257.20 L 599.30 1254.10 L 601.70 1252.00 L 604.10 1250.70 L 606.20 1249.90 L 608.40 1249.60 L 561.60 1241.00 L 530.90 1235.90 L 496.10 1230.90 L 477.90 1228.50 L 440.80 1224.70 L 422.70 1223.30 L 404.90 1222.50 L 388.30 1222.20 Z" fill="#ffbf00" fill-rule="nonzero" group-id="1" id="Shape" node-id="12" stroke="none" target-height="207.6001" target-width="220.10004" target-x="388.3" target-y="1222.2"/><path d="M 657.50 1437.10 L 657.20 1441.10 L 656.60 1444.60 L 655.60 1447.60 L 654.30 1450.20 L 652.70 1452.40 L 650.30 1454.90 L 647.30 1457.00 L 643.70 1458.80 L 639.50 1460.20 L 633.70 1461.40 L 626.90 1462.20 L 618.90 1462.50 L 606.60 1462.30 L 543.80 1458.40 L 525.80 1458.10 L 507.70 1458.30 L 445.00 1460.80 L 432.70 1460.70 L 424.70 1460.30 L 417.80 1459.40 L 412.10 1458.10 L 407.80 1456.70 L 404.20 1455.10 L 401.20 1453.10 L 398.80 1450.80 L 397.20 1448.80 L 395.90 1446.40 L 394.90 1443.70 L 394.30 1440.60 L 394.10 1437.10 L 394.30 1435.30 L 395.00 1433.40 L 396.30 1431.60 L 398.20 1429.60 L 400.80 1427.50 L 404.10 1425.50 L 408.20 1423.40 L 419.50 1419.20 L 427.60 1416.90 L 437.00 1414.70 L 459.00 1411.00 L 484.10 1408.30 L 511.20 1407.00 L 540.40 1407.00 L 567.40 1408.30 L 592.60 1411.00 L 614.50 1414.70 L 623.90 1416.90 L 632.00 1419.20 L 638.20 1421.30 L 647.40 1425.50 L 650.70 1427.50 L 653.40 1429.60 L 655.20 1431.60 L 656.50 1433.40 L 657.20 1435.30 L 657.50 1437.10 Z" fill="#ffbf00" fill-rule="nonzero" group-id="1" id="Shape" node-id="13" stroke="none" target-height="55.5" target-width="263.4" target-x="394.1" target-y="1407"/><path d="M 882.30 875.70 L 880.60 891.70 L 878.40 907.50 L 875.80 923.10 L 872.80 938.40 L 869.50 953.50 L 865.70 968.30 L 860.50 986.10 L 854.90 1003.50 L 848.80 1020.40 L 842.10 1037.00 L 835.00 1053.10 L 827.20 1069.10 L 819.00 1084.70 L 810.40 1099.70 L 801.30 1114.30 L 791.90 1128.40 L 781.80 1142.30 L 771.40 1155.70 L 760.70 1168.50 L 749.60 1180.80 L 738.10 1192.60 L 726.20 1204.00 L 713.90 1214.80 L 701.40 1225.00 L 688.60 1234.70 L 675.50 1243.80 L 664.30 1251.00 L 652.90 1257.70 L 641.30 1264.00 L 629.60 1269.90 L 617.70 1275.30 L 605.70 1280.30 L 593.50 1284.90 L 581.10 1288.90 L 568.60 1292.50 L 556.10 1295.70 L 543.30 1298.30 L 530.50 1300.50 L 517.50 1302.10 L 504.60 1303.30 L 491.50 1303.90 L 478.30 1304.00 L 464.90 1303.50 L 451.50 1302.60 L 438.70 1301.10 L 425.90 1299.10 L 413.10 1296.60 L 400.20 1293.70 L 387.30 1290.10 L 374.60 1286.20 L 361.90 1281.80 L 349.30 1276.90 L 336.80 1271.60 L 324.30 1265.80 L 312.10 1259.60 L 300.00 1253.00 L 288.10 1246.00 L 276.30 1238.70 L 264.60 1230.80 L 253.30 1222.70 L 242.10 1214.20 L 231.30 1205.40 L 220.60 1196.20 L 210.20 1186.70 L 200.10 1176.80 L 190.40 1166.70 L 181.00 1156.30 L 171.90 1145.60 L 163.10 1134.60 L 154.70 1123.30 L 146.70 1111.80 L 139.20 1100.10 L 132.10 1088.20 L 125.30 1076.00 L 119.00 1063.60 L 113.20 1051.00 L 108.00 1038.20 L 103.20 1025.30 L 98.90 1012.20 L 95.10 998.90 L 91.90 985.50 L 89.30 972.00 L 87.20 958.30 L 85.70 944.50 L 85.00 933.00 L 84.70 921.50 L 84.80 909.80 L 85.40 898.10 L 86.40 886.30 L 88.00 874.40 L 89.90 862.70 L 92.40 850.90 L 95.40 839.10 L 98.90 827.20 L 102.90 815.20 L 120.00 770.30 L 129.60 741.10 L 133.90 726.40 L 140.80 699.40 L 143.50 686.90 L 146.70 669.90 L 149.10 654.00 L 151.00 639.00 L 153.30 609.70 L 154.20 576.00 L 153.50 501.90 L 154.00 483.90 L 154.60 471.90 L 155.70 459.80 L 157.30 447.30 L 159.80 431.70 L 162.60 416.80 L 165.80 402.80 L 169.20 389.60 L 173.00 377.10 L 176.70 366.50 L 180.60 356.40 L 184.80 346.90 L 189.20 338.00 L 193.90 329.60 L 198.70 321.60 L 204.20 313.80 L 209.90 306.50 L 216.00 299.70 L 222.40 293.40 L 229.00 287.50 L 236.00 282.10 L 243.30 277.30 L 251.00 272.90 L 259.10 268.90 L 267.70 265.40 L 276.70 262.40 L 286.30 259.90 L 295.60 258.00 L 305.40 256.60 L 315.90 255.70 L 326.90 255.30 L 338.60 255.50 L 351.00 256.20 L 366.60 257.80 L 382.20 260.00 L 397.70 262.80 L 413.20 266.20 L 428.70 270.20 L 443.90 274.70 L 459.10 279.70 L 474.20 285.30 L 489.20 291.40 L 504.10 298.00 L 518.80 305.10 L 533.40 312.60 L 547.80 320.60 L 562.00 329.10 L 576.20 338.00 L 590.10 347.30 L 603.70 356.90 L 617.20 367.00 L 630.50 377.40 L 643.60 388.20 L 659.60 402.20 L 675.20 416.60 L 690.40 431.50 L 705.20 446.90 L 719.50 462.70 L 733.40 478.90 L 746.70 495.40 L 759.60 512.30 L 772.00 529.50 L 783.90 546.90 L 795.10 564.60 L 805.70 582.50 L 815.90 600.70 L 825.40 619.00 L 834.20 637.30 L 842.30 655.70 L 848.40 670.70 L 854.00 685.70 L 859.20 700.50 L 863.90 715.40 L 868.10 730.20 L 871.90 745.20 L 875.10 760.20 L 877.90 774.90 L 880.10 789.60 L 881.80 804.10 L 883.00 818.80 L 883.70 833.30 L 883.80 847.60 L 883.30 861.70 L 882.30 875.70 Z" fill="#ffd9db" fill-rule="nonzero" group-id="1" id="Shape" node-id="14" stroke="none" target-height="1048.7" target-width="799.1" target-x="84.7" target-y="255.3"/><path d="M 677.50 1067.50 L 673.80 1068.40 L 670.00 1069.80 L 666.30 1071.70 L 661.00 1075.10 L 655.90 1079.10 L 651.10 1083.50 L 642.80 1092.50 L 633.20 1105.40 L 644.50 1110.60 L 654.00 1114.50 L 664.70 1118.40 L 678.50 1123.00 L 699.00 1128.70 L 723.40 1134.00 L 736.60 1136.20 L 751.00 1138.20 L 765.30 1139.70 L 780.60 1140.60 L 796.90 1141.10 L 821.50 1140.50 L 848.00 1138.30 L 861.20 1136.50 L 874.80 1134.20 L 888.80 1131.30 L 903.20 1127.80 L 917.30 1123.90 L 931.70 1119.20 L 946.50 1113.90 L 961.70 1107.80 L 973.40 1102.60 L 985.30 1096.90 L 997.40 1090.60 L 1009.80 1083.70 L 1022.30 1076.30 L 1034.30 1068.60 L 1046.50 1060.30 L 1058.90 1051.40 L 1071.40 1041.70 L 1084.20 1031.30 L 1096.30 1020.90 L 1108.50 1009.70 L 1121.00 997.60 L 1133.50 984.80 L 1146.30 971.10 L 1149.10 967.40 L 1156.60 957.10 L 1166.80 941.50 L 1172.30 932.20 L 1178.00 921.80 L 1183.30 911.00 L 1188.40 899.50 L 1191.40 891.60 L 1194.00 883.70 L 1196.20 875.70 L 1198.00 867.50 L 1199.10 859.50 L 1199.70 851.70 L 1199.70 845.70 L 1199.20 839.90 L 1198.30 834.30 L 1197.00 828.80 L 1195.20 823.40 L 1192.90 818.20 L 1189.90 813.20 L 1186.40 808.30 L 1183.40 804.70 L 1179.80 801.20 L 1175.80 797.90 L 1171.30 794.60 L 1166.20 791.50 L 1155.50 786.30 L 1142.20 781.60 L 1134.40 779.60 L 1125.10 777.60 L 1114.50 776.00 L 1102.70 774.80 L 1089.40 773.90 L 1078.20 773.80 L 1067.70 774.20 L 1058.00 775.20 L 1049.00 776.60 L 1039.90 778.60 L 1031.30 781.10 L 1023.30 784.00 L 1015.70 787.30 L 1008.20 791.10 L 1001.20 795.20 L 994.40 799.80 L 987.90 804.70 L 979.70 811.70 L 971.80 819.30 L 964.20 827.50 L 957.00 836.10 L 942.90 854.60 L 932.80 869.10 L 894.40 926.60 L 878.70 947.90 L 870.30 958.30 L 861.40 968.60 L 852.00 978.80 L 844.60 986.20 L 828.70 1000.60 L 820.00 1007.50 L 811.20 1014.10 L 801.80 1020.50 L 791.90 1026.70 L 781.40 1032.70 L 770.70 1038.20 L 759.40 1043.50 L 747.30 1048.40 L 734.40 1053.10 L 721.50 1057.20 L 707.80 1061.00 L 693.20 1064.40 L 677.50 1067.50 Z" fill="#babadb" fill-rule="nonzero" group-id="1" id="Shape" node-id="15" stroke="none" target-height="367.3" target-width="566.49994" target-x="633.2" target-y="773.8"/><path d="M 717.70 1068.20 L 711.70 1071.00 L 708.90 1073.00 L 704.80 1076.50 L 701.10 1080.40 L 697.60 1084.60 L 691.80 1093.00 L 685.40 1104.90 L 697.20 1108.40 L 718.00 1112.90 L 732.10 1115.20 L 741.80 1116.40 L 764.80 1118.00 L 776.80 1118.30 L 789.80 1118.10 L 803.80 1117.40 L 824.90 1115.30 L 847.80 1111.40 L 859.20 1108.90 L 870.90 1105.90 L 882.90 1102.30 L 895.40 1098.10 L 907.40 1093.50 L 919.80 1088.20 L 932.40 1082.20 L 945.20 1075.50 L 965.10 1063.70 L 975.30 1057.00 L 996.00 1041.80 L 1005.90 1033.80 L 1015.80 1025.10 L 1025.90 1015.80 L 1036.00 1005.70 L 1046.30 995.00 L 1055.90 984.20 L 1065.60 972.70 L 1075.30 960.40 L 1085.00 947.20 L 1094.80 933.20 L 1102.80 918.10 L 1110.20 901.70 L 1114.00 892.20 L 1117.60 881.70 L 1121.70 867.10 L 1124.50 851.90 L 1125.30 844.50 L 1125.50 837.00 L 1125.30 831.50 L 1123.80 820.90 L 1122.50 815.80 L 1120.80 810.90 L 1118.60 806.20 L 1115.90 801.70 L 1112.70 797.50 L 1109.80 794.40 L 1102.90 788.70 L 1098.80 786.20 L 1089.60 781.80 L 1084.50 780.00 L 1072.40 777.20 L 1065.30 776.20 L 1056.90 775.50 L 1047.40 775.30 L 1036.60 775.60 L 1024.40 776.50 L 1014.40 777.90 L 1005.10 779.60 L 996.60 781.80 L 988.80 784.30 L 981.10 787.50 L 973.90 790.90 L 967.30 794.70 L 961.10 798.90 L 955.20 803.40 L 949.60 808.30 L 944.30 813.50 L 939.40 819.00 L 933.30 826.70 L 927.50 834.90 L 922.00 843.60 L 911.80 861.90 L 885.10 917.50 L 877.00 933.30 L 871.30 943.80 L 865.10 954.30 L 858.40 964.70 L 851.30 974.90 L 843.50 985.00 L 835.00 995.10 L 828.30 1002.20 L 821.10 1009.30 L 813.30 1016.30 L 804.90 1023.20 L 796.40 1029.60 L 787.20 1035.80 L 777.20 1042.00 L 766.40 1047.90 L 755.60 1053.30 L 744.00 1058.50 L 731.30 1063.50 L 717.70 1068.20 Z" fill="#c5c5e8" fill-rule="nonzero" group-id="1" id="Shape" node-id="16" stroke="none" target-height="343.00006" target-width="440.09998" target-x="685.4" target-y="775.3"/><path d="M 178.90 360.70 L 172.10 379.90 L 169.10 390.30 L 166.20 401.10 L 162.90 415.70 L 159.90 431.00 L 157.30 447.40 L 154.90 468.70 L 153.60 494.90 L 153.50 510.50 L 154.10 558.40 L 154.00 592.30 L 152.50 622.60 L 149.80 648.70 L 155.70 629.60 L 160.60 611.80 L 164.60 595.20 L 168.10 578.40 L 170.90 562.60 L 173.10 547.80 L 174.80 532.90 L 176.90 505.30 L 177.60 485.40 L 177.80 466.60 L 177.00 412.80 L 177.10 395.50 L 178.00 372.40 L 178.90 360.70 Z M 475.00 1199.50 L 467.30 1197.40 L 459.80 1194.80 L 452.60 1191.60 L 445.70 1187.90 L 439.00 1183.90 L 432.70 1179.50 L 420.90 1170.00 L 407.90 1157.50 L 401.40 1150.30 L 395.50 1143.10 L 337.60 1065.50 L 324.10 1047.90 L 319.50 1042.30 L 316.20 1039.20 L 315.90 1039.30 L 315.90 1040.20 L 316.60 1042.40 L 329.20 1071.70 L 334.80 1086.80 L 337.00 1094.30 L 338.50 1101.20 L 339.10 1105.70 L 339.20 1109.70 L 338.90 1113.20 L 338.30 1115.70 L 337.40 1117.80 L 336.20 1119.60 L 334.60 1121.10 L 332.80 1122.10 L 330.50 1122.90 L 327.70 1123.20 L 324.10 1123.10 L 316.80 1121.60 L 311.90 1120.00 L 306.10 1117.60 L 298.70 1114.10 L 289.80 1109.30 L 279.00 1102.80 L 255.90 1087.40 L 227.10 1066.10 L 191.90 1038.20 L 180.50 1023.70 L 169.80 1009.20 L 163.10 999.40 L 156.70 989.30 L 150.80 979.10 L 145.30 968.70 L 140.30 957.80 L 135.80 946.40 L 132.90 937.80 L 130.30 928.80 L 128.00 919.30 L 126.00 909.40 L 124.50 899.60 L 123.40 889.30 L 122.70 878.30 L 122.40 866.70 L 122.50 855.30 L 123.10 843.20 L 124.20 830.20 L 125.90 816.40 L 127.90 803.10 L 130.50 788.80 L 133.80 773.50 L 137.60 757.20 L 107.50 803.00 L 102.90 815.20 L 98.90 827.20 L 95.40 839.10 L 92.40 850.90 L 89.90 862.70 L 88.00 874.40 L 86.40 886.30 L 85.40 898.10 L 84.80 909.80 L 84.70 921.40 L 85.00 933.00 L 85.70 944.50 L 87.20 958.30 L 89.30 972.00 L 91.90 985.50 L 95.10 998.90 L 98.90 1012.20 L 103.20 1025.30 L 108.00 1038.20 L 113.20 1051.00 L 119.00 1063.60 L 125.30 1076.00 L 132.10 1088.20 L 139.20 1100.10 L 146.70 1111.80 L 154.70 1123.30 L 163.10 1134.60 L 171.90 1145.60 L 181.00 1156.30 L 190.40 1166.70 L 200.10 1176.80 L 210.20 1186.70 L 220.60 1196.20 L 231.30 1205.40 L 242.10 1214.20 L 253.30 1222.70 L 264.60 1230.80 L 276.30 1238.60 L 288.10 1246.00 L 300.00 1253.00 L 312.10 1259.60 L 324.30 1265.80 L 336.80 1271.60 L 349.30 1276.90 L 361.90 1281.80 L 374.60 1286.20 L 387.30 1290.10 L 400.20 1293.60 L 413.10 1296.60 L 425.90 1299.10 L 438.70 1301.10 L 451.50 1302.60 L 464.60 1303.50 L 477.60 1303.90 L 490.40 1303.90 L 503.20 1303.30 L 515.90 1302.30 L 528.40 1300.70 L 541.00 1298.70 L 553.40 1296.20 L 565.70 1293.30 L 577.90 1289.90 L 589.90 1286.00 L 601.90 1281.70 L 616.00 1276.00 L 629.90 1269.70 L 643.50 1262.80 L 657.00 1255.30 L 670.30 1247.10 L 683.10 1238.50 L 695.70 1229.30 L 708.10 1219.60 L 720.20 1209.30 L 732.00 1198.50 L 743.30 1187.30 L 754.30 1175.60 L 765.00 1163.40 L 775.40 1150.60 L 785.40 1137.40 L 794.90 1123.90 L 804.00 1110.00 L 812.70 1095.60 L 821.00 1080.80 L 828.90 1065.50 L 836.30 1050.00 L 843.20 1034.20 L 849.60 1018.00 L 855.50 1001.30 L 861.00 984.30 L 865.90 967.20 L 870.20 949.80 L 874.00 932.00 L 877.30 913.90 L 880.00 895.40 L 874.30 911.80 L 868.10 927.80 L 861.40 943.40 L 854.40 958.50 L 846.90 973.40 L 838.80 988.00 L 830.40 1002.30 L 821.70 1016.00 L 812.50 1029.40 L 803.00 1042.30 L 793.00 1054.90 L 782.70 1067.10 L 772.10 1078.80 L 761.10 1090.00 L 749.90 1100.70 L 738.20 1111.00 L 726.30 1120.80 L 714.20 1130.10 L 701.80 1138.80 L 689.10 1147.10 L 676.10 1154.80 L 662.90 1162.00 L 649.40 1168.60 L 635.80 1174.60 L 622.00 1180.00 L 610.30 1184.10 L 598.50 1187.70 L 586.60 1190.90 L 574.60 1193.70 L 562.40 1196.10 L 550.20 1198.00 L 537.90 1199.40 L 525.50 1200.40 L 513.10 1200.90 L 500.50 1200.90 L 487.80 1200.50 L 475.00 1199.50 Z" fill="#edb4b8" fill-rule="nonzero" group-id="1" id="Shape" node-id="17" stroke="none" target-height="943.2" target-width="795.3" target-x="84.7" target-y="360.7"/><path d="M 831.80 978.40 L 847.60 964.10 L 855.20 956.70 L 874.20 936.70 L 884.90 924.30 L 899.30 906.40 L 906.90 896.30 L 921.30 875.00 L 928.50 863.50 L 935.30 851.70 L 941.70 839.40 L 947.90 826.60 L 952.10 816.80 L 959.70 796.60 L 963.10 786.10 L 966.00 775.50 L 968.50 764.70 L 970.60 753.70 L 972.20 742.50 L 973.40 731.30 L 973.90 719.90 L 974.00 708.40 L 973.40 696.60 L 972.60 687.20 L 971.30 677.80 L 969.60 668.20 L 967.40 658.50 L 964.70 648.70 L 961.70 639.10 L 958.20 629.50 L 954.10 619.60 L 949.50 609.60 L 940.00 591.20 L 936.50 583.50 L 933.60 576.40 L 929.70 563.90 L 928.30 557.40 L 927.40 551.40 L 927.00 546.00 L 927.10 541.10 L 927.60 536.50 L 928.60 531.80 L 929.90 527.60 L 931.60 523.70 L 933.70 520.20 L 936.00 517.00 L 938.80 514.00 L 941.80 511.40 L 945.20 509.00 L 948.80 506.90 L 952.90 505.00 L 958.00 503.20 L 963.60 501.80 L 969.60 500.90 L 976.00 500.30 L 982.40 500.20 L 989.10 500.60 L 996.10 501.30 L 1003.50 502.50 L 1017.90 506.10 L 1033.10 511.40 L 1040.50 514.60 L 1055.30 522.20 L 1062.80 526.60 L 1069.90 531.30 L 1077.00 536.40 L 1083.80 541.90 L 1090.50 547.80 L 1096.90 554.00 L 1103.00 560.50 L 1108.70 567.40 L 1114.20 574.70 L 1119.20 582.30 L 1123.90 590.20 L 1128.00 598.40 L 1131.80 607.00 L 1134.40 614.00 L 1136.60 621.30 L 1138.50 628.70 L 1140.00 636.50 L 1141.20 644.50 L 1141.90 652.30 L 1142.20 660.50 L 1142.00 668.90 L 1141.40 677.60 L 1140.30 686.60 L 1138.80 695.40 L 1136.70 704.40 L 1134.10 713.70 L 1130.90 723.30 L 1127.10 733.30 L 1123.00 742.80 L 1118.20 752.60 L 1112.70 762.70 L 1106.50 773.30 L 1099.50 784.20 L 1084.80 805.40 L 1070.30 825.40 L 1056.00 844.30 L 1041.90 861.90 L 1027.20 879.60 L 1012.80 896.00 L 998.70 911.30 L 985.00 925.60 L 970.60 939.70 L 956.80 952.80 L 943.50 964.70 L 930.70 975.60 L 917.20 986.40 L 904.50 996.10 L 892.50 1004.80 L 881.10 1012.50 L 869.00 1020.10 L 857.90 1026.60 L 847.60 1032.10 L 838.20 1036.80 L 828.10 1041.20 L 819.10 1044.60 L 811.10 1047.20 L 804.10 1048.90 L 797.90 1050.10 L 792.50 1050.60 L 788.00 1050.60 L 784.10 1050.20 L 780.80 1049.50 L 831.80 978.40 Z" fill="#babadb" fill-rule="nonzero" group-id="1" id="Shape" node-id="18" stroke="none" target-height="550.39996" target-width="361.39996" target-x="780.8" target-y="500.2"/><g node-id="39"><path d="M 348.60 252.10 L 336.20 251.40 L 324.50 251.30 L 313.50 251.70 L 303.00 252.60 L 293.20 254.00 L 283.90 255.90 L 274.30 258.40 L 265.30 261.40 L 256.70 264.90 L 248.60 268.80 L 240.90 273.20 L 233.60 278.10 L 226.60 283.50 L 220.00 289.30 L 213.60 295.60 L 207.60 302.40 L 201.80 309.70 L 196.40 317.60 L 191.50 325.50 L 186.80 333.90 L 182.40 342.90 L 178.20 352.40 L 174.30 362.40 L 170.60 373.10 L 166.80 385.60 L 163.40 398.80 L 160.20 412.80 L 157.40 427.60 L 154.90 443.30 L 153.50 454.30 L 151.80 475.70 L 151.20 491.60 L 151.10 507.50 L 151.80 573.50 L 153.10 563.00 L 156.10 544.70 L 159.50 526.60 L 163.50 508.70 L 170.60 482.30 L 178.80 457.30 L 183.60 445.00 L 188.60 433.10 L 194.00 421.80 L 199.70 410.90 L 205.90 400.30 L 212.40 390.20 L 219.30 380.80 L 226.50 372.00 L 232.80 365.20 L 239.20 358.80 L 245.90 353.00 L 252.80 347.60 L 260.00 342.60 L 267.50 338.00 L 275.30 334.00 L 283.40 330.50 L 291.80 327.50 L 300.60 325.00 L 307.90 323.40 L 315.50 322.20 L 323.40 321.40 L 331.50 321.00 L 340.00 321.00 L 348.90 321.50 L 354.80 322.30 L 360.80 323.70 L 367.10 325.80 L 373.50 328.60 L 379.70 331.70 L 392.50 339.70 L 399.20 344.50 L 407.70 351.30 L 416.50 358.80 L 425.50 367.10 L 438.70 380.00 L 452.10 394.00 L 504.50 452.10 L 529.60 478.90 L 537.90 487.10 L 553.50 501.10 L 565.10 510.00 L 575.70 516.60 L 577.60 517.30 L 579.00 517.50 L 580.00 517.20 L 580.80 516.60 L 581.60 515.20 L 582.20 513.20 L 582.50 510.10 L 582.50 505.20 L 581.90 498.90 L 576.80 461.10 L 576.00 448.80 L 576.50 440.50 L 577.20 436.60 L 578.30 433.50 L 579.60 431.00 L 581.00 429.50 L 582.50 428.30 L 584.40 427.50 L 586.60 427.10 L 591.50 427.60 L 594.70 428.60 L 598.50 430.40 L 603.30 433.00 L 609.20 437.00 L 616.40 442.50 L 631.50 455.90 L 656.10 479.50 L 670.70 494.00 L 684.90 509.10 L 698.90 524.60 L 712.40 540.40 L 725.60 556.60 L 738.30 573.00 L 750.70 589.90 L 762.60 607.00 L 774.10 624.30 L 785.10 641.80 L 795.60 659.50 L 805.70 677.40 L 815.20 695.40 L 824.20 713.50 L 832.60 731.60 L 840.60 750.00 L 848.00 768.30 L 854.70 786.50 L 860.90 804.50 L 866.50 822.90 L 871.50 841.00 L 875.70 858.90 L 879.30 876.50 L 880.90 857.70 L 881.40 843.60 L 881.30 829.30 L 880.60 814.80 L 879.40 800.10 L 877.70 785.50 L 875.50 770.90 L 872.70 756.10 L 869.50 741.20 L 865.70 726.10 L 861.50 711.30 L 856.80 696.50 L 851.60 681.60 L 846.00 666.70 L 839.90 651.70 L 831.80 633.20 L 823.00 614.90 L 813.50 596.60 L 803.30 578.40 L 792.70 560.50 L 781.50 542.90 L 769.60 525.40 L 757.20 508.20 L 744.40 491.30 L 731.00 474.80 L 717.10 458.70 L 702.80 442.90 L 688.00 427.40 L 672.80 412.50 L 657.20 398.10 L 641.20 384.20 L 628.10 373.30 L 614.80 362.90 L 601.30 352.90 L 587.70 343.20 L 573.80 333.90 L 559.70 325.00 L 545.40 316.60 L 531.00 308.60 L 516.40 301.10 L 501.70 294.00 L 486.80 287.30 L 471.80 281.20 L 456.70 275.70 L 441.50 270.60 L 426.30 266.10 L 410.80 262.10 L 395.30 258.70 L 379.80 256.00 L 364.20 253.80 L 348.60 252.10 Z" fill="#fff5f5" fill-opacity="0.4" fill-rule="nonzero" group-id="1,4" id="Shape" node-id="19" stroke="none" target-height="625.2" target-width="730.30005" target-x="151.1" target-y="251.3"/></g><path d="M 859.40 970.60 L 867.40 961.00 L 880.20 943.80 L 888.30 932.10 L 896.50 919.40 L 905.50 904.40 L 911.40 894.10 L 923.30 870.80 L 928.90 858.50 L 934.40 845.60 L 939.60 832.00 L 944.40 818.20 L 948.70 803.90 L 952.60 789.00 L 955.10 777.70 L 957.20 766.30 L 958.90 754.50 L 960.30 742.60 L 961.10 730.60 L 961.50 718.50 L 961.30 706.20 L 960.60 693.60 L 959.40 681.20 L 957.50 668.70 L 955.00 655.90 L 951.80 643.00 L 948.80 632.90 L 945.30 622.80 L 941.30 612.50 L 936.70 602.10 L 926.70 581.10 L 922.70 571.70 L 919.70 563.10 L 917.60 555.40 L 916.30 548.70 L 915.40 542.70 L 915.00 537.10 L 915.10 532.10 L 915.50 527.50 L 916.40 522.70 L 917.60 518.40 L 919.20 514.50 L 921.10 510.90 L 923.20 507.70 L 926.50 504.10 L 930.10 500.90 L 934.20 498.20 L 938.80 495.90 L 943.50 494.20 L 948.60 492.90 L 954.10 492.10 L 960.00 491.70 L 965.80 491.90 L 971.90 492.50 L 978.20 493.50 L 984.90 495.10 L 991.30 497.00 L 1004.50 502.30 L 1011.30 505.60 L 1017.80 509.30 L 1024.30 513.50 L 1030.80 518.10 L 1037.20 523.20 L 1043.30 528.60 L 1049.20 534.50 L 1055.00 540.80 L 1060.50 547.60 L 1065.70 554.70 L 1070.50 562.10 L 1075.00 570.10 L 1079.20 578.60 L 1082.80 587.20 L 1086.00 596.30 L 1088.80 605.80 L 1091.10 615.90 L 1092.50 623.90 L 1093.50 632.30 L 1094.10 641.00 L 1094.40 650.00 L 1094.20 659.40 L 1093.60 668.50 L 1092.60 678.00 L 1091.00 687.90 L 1089.00 698.10 L 1086.40 708.80 L 1083.50 719.00 L 1080.00 729.60 L 1075.90 740.60 L 1071.10 752.00 L 1065.70 763.90 L 1054.80 785.70 L 1044.10 806.20 L 1033.60 825.60 L 1023.10 843.70 L 1012.00 862.00 L 1001.20 879.00 L 990.60 894.90 L 980.30 909.60 L 969.40 924.40 L 958.90 938.10 L 948.70 950.60 L 928.60 973.50 L 909.60 993.00 L 891.40 1009.40 L 882.80 1016.50 L 874.80 1022.50 L 867.40 1027.60 L 859.40 1032.60 L 852.30 1036.50 L 846.10 1039.50 L 840.50 1041.60 L 835.60 1043.10 L 831.30 1043.90 L 827.60 1044.20 L 824.50 1044.10 L 821.80 1043.50 L 859.40 970.60 Z" fill="#c5c5e8" fill-rule="nonzero" group-id="1" id="Shape" node-id="20" stroke="none" target-height="552.49994" target-width="272.60004" target-x="821.8" target-y="491.7"/><path d="M 125.00 903.00 L 122.80 890.80 L 122.20 885.10 L 121.90 878.30 L 121.90 871.30 L 122.50 864.00 L 123.20 859.10 L 125.90 849.70 L 127.80 845.20 L 130.20 841.00 L 133.20 837.10 L 135.70 834.60 L 138.60 832.20 L 141.80 830.10 L 145.50 828.30 L 149.30 826.90 L 153.70 825.90 L 158.60 825.20 L 168.50 824.70 L 172.80 823.90 L 177.20 822.60 L 181.60 820.70 L 186.00 818.20 L 191.20 814.70 L 196.30 810.50 L 201.50 805.40 L 206.60 799.40 L 211.30 793.30 L 215.80 786.40 L 220.10 778.80 L 224.40 770.50 L 228.20 762.10 L 231.70 753.10 L 234.90 743.50 L 237.90 733.30 L 240.40 723.10 L 242.50 712.50 L 244.20 701.40 L 245.60 689.90 L 246.40 678.40 L 246.80 666.60 L 246.70 654.50 L 246.00 642.10 L 244.90 629.80 L 243.10 617.40 L 240.70 604.80 L 237.70 592.00 L 234.90 582.00 L 231.70 571.90 L 228.00 561.80 L 223.90 551.60 L 219.20 541.50 L 205.60 560.70 L 191.20 582.90 L 174.00 611.90 L 165.10 628.30 L 155.90 646.40 L 150.00 658.80 L 138.60 685.40 L 133.30 699.00 L 128.30 713.10 L 123.80 727.40 L 119.70 742.00 L 116.20 756.60 L 113.20 771.50 L 111.50 782.70 L 110.10 793.80 L 109.20 805.00 L 108.80 816.20 L 108.80 827.40 L 109.40 838.50 L 110.50 849.50 L 112.10 860.50 L 113.80 869.10 L 116.00 877.70 L 118.60 886.20 L 121.60 894.70 L 125.00 903.00 Z" fill="#edb4b8" fill-rule="nonzero" group-id="1" id="Shape" node-id="21" stroke="none" target-height="361.5" target-width="138" target-x="108.8" target-y="541.5"/><path d="M 222.80 650.90 L 222.50 663.60 L 221.80 675.70 L 220.70 687.10 L 219.00 698.50 L 216.90 709.00 L 214.40 718.60 L 212.10 725.80 L 209.60 732.30 L 206.90 738.10 L 204.00 743.40 L 200.50 748.50 L 197.00 752.90 L 193.20 756.60 L 189.30 759.70 L 185.80 761.70 L 182.20 763.40 L 178.40 764.50 L 174.50 765.20 L 170.30 765.50 L 164.40 765.20 L 158.20 764.40 L 151.60 762.90 L 145.20 760.90 L 138.70 758.30 L 132.10 755.00 L 125.80 751.30 L 119.70 746.90 L 113.70 741.90 L 109.50 737.80 L 101.70 728.70 L 98.20 723.50 L 95.00 718.20 L 92.20 712.50 L 89.70 706.30 L 87.50 699.80 L 85.80 693.20 L 84.60 686.20 L 83.80 678.80 L 83.50 670.80 L 83.80 664.10 L 84.50 657.30 L 85.70 650.40 L 87.40 643.50 L 90.30 634.40 L 93.70 625.40 L 97.90 616.50 L 102.60 607.80 L 107.70 599.50 L 113.20 591.40 L 119.20 583.50 L 125.30 576.20 L 131.60 569.40 L 138.20 562.90 L 144.80 557.10 L 151.20 552.00 L 158.00 547.30 L 164.30 543.50 L 170.30 540.50 L 175.10 538.60 L 179.50 537.40 L 183.50 536.60 L 187.20 536.40 L 191.50 536.70 L 195.40 537.50 L 198.90 538.70 L 202.00 540.50 L 204.90 542.70 L 207.50 545.30 L 209.90 548.40 L 212.00 552.00 L 214.40 557.10 L 216.40 563.10 L 218.10 569.90 L 219.40 576.90 L 221.30 593.10 L 222.10 606.10 L 222.60 620.50 L 222.80 650.90 Z" fill="#ff87cf" fill-rule="nonzero" group-id="1" id="Shape" node-id="22" stroke="none" target-height="229.09998" target-width="139.3" target-x="83.5" target-y="536.4"/><path d="M 862.30 862.70 L 866.70 849.40 L 873.10 826.40 L 876.80 810.90 L 880.40 794.40 L 883.80 775.20 L 887.70 748.10 L 889.20 733.20 L 890.40 718.30 L 891.20 702.80 L 891.40 686.60 L 891.20 670.50 L 890.30 654.00 L 888.80 637.20 L 887.30 624.60 L 885.20 612.00 L 882.80 599.30 L 879.80 586.60 L 876.40 574.00 L 872.40 561.50 L 867.90 549.00 L 862.80 536.50 L 858.30 526.80 L 853.40 517.20 L 848.10 507.70 L 842.30 498.20 L 836.10 488.80 L 829.60 479.80 L 822.50 471.00 L 815.00 462.30 L 806.90 453.70 L 798.20 445.20 L 789.30 437.30 L 779.90 429.50 L 769.70 421.90 L 758.90 414.50 L 738.00 401.40 L 729.80 395.70 L 722.50 390.20 L 716.30 385.00 L 710.90 379.90 L 705.50 374.00 L 701.10 368.50 L 697.40 363.20 L 694.50 358.00 L 692.20 353.10 L 690.40 347.80 L 689.20 342.60 L 688.60 337.60 L 688.50 332.80 L 689.00 328.10 L 690.00 323.40 L 691.50 318.80 L 693.50 314.30 L 695.90 310.00 L 698.90 305.60 L 703.10 300.70 L 707.90 295.90 L 713.40 291.20 L 719.70 286.80 L 726.20 282.80 L 733.20 279.10 L 740.80 275.60 L 749.10 272.40 L 757.40 269.70 L 766.00 267.30 L 775.20 265.20 L 784.70 263.50 L 794.20 262.30 L 804.00 261.40 L 814.00 261.00 L 824.30 261.00 L 834.50 261.50 L 844.70 262.40 L 855.10 263.90 L 865.50 265.80 L 875.70 268.30 L 885.90 271.30 L 896.00 274.90 L 906.00 279.00 L 913.80 282.60 L 921.50 286.70 L 929.00 291.20 L 936.30 296.00 L 943.60 301.30 L 950.50 306.90 L 957.10 312.90 L 963.60 319.40 L 969.80 326.40 L 975.90 333.80 L 981.40 341.50 L 986.60 349.60 L 991.60 358.30 L 996.20 367.60 L 1000.60 377.50 L 1004.30 387.30 L 1007.70 397.70 L 1010.60 408.80 L 1013.20 420.60 L 1015.40 433.20 L 1016.90 445.30 L 1018.00 458.20 L 1018.50 471.90 L 1018.60 486.50 L 1018.00 501.90 L 1016.20 528.60 L 1014.00 554.30 L 1011.40 579.00 L 1008.30 602.70 L 1004.80 626.70 L 1000.90 649.60 L 996.70 671.50 L 992.30 692.30 L 987.40 713.40 L 982.30 733.40 L 977.00 752.30 L 971.60 770.20 L 965.70 788.30 L 959.70 805.20 L 947.80 835.80 L 934.90 864.60 L 922.40 888.70 L 915.70 900.50 L 909.30 910.90 L 903.10 920.20 L 897.20 928.50 L 890.60 936.80 L 884.50 943.80 L 878.90 949.60 L 873.60 954.50 L 868.80 958.30 L 864.40 961.30 L 860.40 963.60 L 856.70 965.20 L 853.40 966.30 L 862.30 862.70 Z" fill="#c5c5e8" fill-rule="nonzero" group-id="1" id="Shape" node-id="23" stroke="none" target-height="705.3" target-width="330.09998" target-x="688.5" target-y="261"/><path d="M 329.40 885.50 L 334.20 907.50 L 341.20 932.20 L 345.90 946.80 L 356.40 974.80 L 367.10 999.50 L 373.10 1012.00 L 379.80 1025.00 L 387.20 1038.30 L 395.00 1051.40 L 403.50 1064.60 L 412.80 1078.00 L 420.10 1087.80 L 436.00 1107.20 L 444.60 1116.70 L 453.50 1126.00 L 462.90 1135.00 L 472.70 1143.90 L 483.10 1152.60 L 493.70 1160.80 L 504.90 1168.70 L 516.60 1176.30 L 528.90 1183.60 L 538.80 1189.00 L 549.10 1194.20 L 559.90 1199.10 L 571.00 1203.70 L 582.50 1208.00 L 682.30 1148.80 L 329.40 885.50 Z" fill="#edb4b8" fill-rule="nonzero" group-id="1" id="Shape" node-id="24" stroke="none" target-height="322.5" target-width="352.9" target-x="329.4" target-y="885.5"/><path d="M 232.50 453.60 L 235.00 459.50 L 238.60 471.40 L 240.80 483.20 L 241.20 489.10 L 241.20 494.80 L 240.80 500.50 L 240.00 506.10 L 238.70 511.50 L 236.90 516.80 L 234.70 521.90 L 232.00 526.70 L 228.80 531.40 L 225.10 535.80 L 220.80 540.10 L 216.30 543.80 L 211.10 547.40 L 205.20 550.70 L 198.60 553.70 L 193.60 555.50 L 187.60 557.10 L 180.60 558.60 L 165.90 560.70 L 157.50 561.40 L 144.70 562.10 L 130.90 562.30 L 117.00 562.10 L 102.80 561.50 L 88.60 560.40 L 74.80 559.00 L 61.20 557.20 L 48.70 555.10 L 36.70 552.70 L 26.40 550.00 L 19.80 547.90 L 9.60 543.80 L 3.50 540.10 L 0.00 536.60 L 1.70 529.50 L 5.60 519.50 L 11.40 508.90 L 15.00 503.30 L 25.10 489.90 L 31.00 483.20 L 38.10 475.90 L 46.70 467.80 L 55.50 460.30 L 65.90 452.20 L 78.00 443.60 L 87.20 437.60 L 108.50 424.90 L 120.90 418.20 L 127.50 415.10 L 134.00 412.70 L 140.60 410.90 L 147.20 409.60 L 154.00 408.90 L 160.60 408.70 L 167.10 409.00 L 173.60 409.80 L 180.00 411.20 L 186.20 412.90 L 192.20 415.20 L 198.00 417.90 L 203.60 421.00 L 208.80 424.50 L 213.70 428.50 L 218.30 432.80 L 222.60 437.50 L 226.30 442.50 L 229.60 447.80 L 232.50 453.60 Z" fill="#ffbf00" fill-rule="nonzero" group-id="1" id="Shape" node-id="25" stroke="none" target-height="153.59998" target-width="241.2" target-x="0" target-y="408.7"/><path d="M 791.40 695.70 L 802.20 705.50 L 812.70 715.80 L 823.10 726.70 L 833.20 738.00 L 842.90 749.60 L 852.30 761.60 L 861.30 773.90 L 870.10 786.50 L 878.50 799.40 L 886.50 812.50 L 894.10 825.80 L 901.30 839.20 L 908.20 852.90 L 914.50 866.60 L 920.50 880.40 L 925.90 894.20 L 931.00 908.20 L 935.50 922.00 L 939.50 935.70 L 943.00 949.30 L 946.00 963.10 L 948.50 976.60 L 950.30 989.80 L 951.70 1002.70 L 952.40 1015.70 L 952.60 1028.40 L 952.10 1040.50 L 951.00 1052.30 L 949.70 1061.70 L 947.90 1070.90 L 945.80 1079.60 L 943.20 1088.00 L 940.20 1096.10 L 936.80 1104.10 L 932.80 1111.70 L 928.50 1118.90 L 923.60 1125.70 L 918.40 1132.20 L 913.20 1137.60 L 907.60 1142.60 L 901.40 1147.30 L 894.80 1151.60 L 887.70 1155.60 L 880.40 1159.00 L 872.70 1162.10 L 864.60 1164.90 L 855.90 1167.30 L 846.80 1169.40 L 835.50 1171.40 L 823.60 1172.90 L 811.10 1174.00 L 798.00 1174.50 L 785.00 1174.50 L 771.60 1174.00 L 757.70 1173.10 L 743.40 1171.70 L 714.80 1167.60 L 700.10 1164.90 L 685.10 1161.70 L 665.40 1157.00 L 645.50 1151.60 L 625.40 1145.50 L 605.60 1138.80 L 585.90 1131.50 L 566.40 1123.70 L 547.20 1115.30 L 528.50 1106.50 L 510.30 1097.30 L 496.80 1089.90 L 471.30 1074.70 L 459.20 1066.90 L 447.30 1058.70 L 436.00 1050.40 L 425.40 1042.00 L 415.40 1033.50 L 405.60 1024.50 L 396.50 1015.40 L 388.10 1006.30 L 380.40 997.10 L 373.30 987.80 L 366.50 978.00 L 360.30 968.10 L 354.70 958.30 L 349.60 948.40 L 345.10 938.40 L 341.00 928.10 L 337.40 917.90 L 334.30 907.60 L 331.70 897.30 L 329.60 887.00 L 328.00 876.60 L 326.80 866.20 L 326.00 855.90 L 325.60 845.60 L 325.70 835.30 L 326.40 822.50 L 327.80 809.80 L 329.70 797.30 L 332.20 784.90 L 335.30 772.60 L 339.00 760.60 L 343.20 748.90 L 347.90 737.40 L 353.20 726.10 L 358.90 715.20 L 365.00 704.60 L 371.70 694.40 L 378.80 684.50 L 386.20 675.10 L 394.10 666.20 L 402.30 657.70 L 411.80 648.60 L 421.10 640.40 L 430.30 632.80 L 439.40 625.90 L 448.40 619.70 L 457.20 614.00 L 466.60 608.60 L 475.90 603.70 L 485.20 599.50 L 494.30 595.70 L 503.30 592.50 L 512.30 589.90 L 521.60 587.60 L 530.90 585.80 L 540.10 584.50 L 549.30 583.60 L 558.50 583.30 L 567.70 583.30 L 578.70 584.00 L 589.70 585.20 L 600.80 587.00 L 612.00 589.40 L 623.20 592.50 L 634.20 596.00 L 645.20 600.00 L 656.40 604.60 L 667.60 609.80 L 679.00 615.50 L 692.70 623.10 L 706.60 631.40 L 720.70 640.60 L 735.00 650.50 L 748.90 660.80 L 762.90 671.70 L 777.00 683.30 L 791.40 695.70 Z" fill="#edb4b8" fill-rule="nonzero" group-id="1" id="Shape" node-id="26" stroke="none" target-height="591.2" target-width="627" target-x="325.6" target-y="583.3"/><path d="M 732.00 663.50 L 741.10 671.80 L 750.00 680.50 L 758.70 689.60 L 767.20 699.20 L 783.40 719.10 L 791.00 729.50 L 805.50 751.00 L 818.70 773.30 L 824.80 784.70 L 836.00 807.80 L 845.60 831.00 L 849.80 842.80 L 857.00 866.10 L 860.00 877.60 L 862.50 889.20 L 864.60 900.60 L 866.20 911.80 L 867.30 922.70 L 867.90 933.70 L 868.10 944.30 L 867.70 954.60 L 866.80 964.50 L 864.20 980.20 L 862.30 987.60 L 860.20 994.70 L 857.70 1001.60 L 854.70 1008.30 L 851.40 1014.70 L 847.70 1020.80 L 843.60 1026.60 L 839.20 1032.00 L 833.90 1033.10 L 828.60 1033.70 L 823.30 1033.90 L 817.90 1033.50 L 812.60 1032.70 L 802.00 1030.00 L 796.60 1028.00 L 789.60 1025.00 L 782.70 1021.40 L 768.90 1013.00 L 755.50 1003.20 L 745.90 995.40 L 736.70 987.40 L 697.50 951.20 L 688.00 943.90 L 684.80 942.10 L 682.20 941.00 L 687.70 947.40 L 690.80 951.70 L 695.30 958.70 L 700.10 966.90 L 704.60 975.60 L 709.10 985.00 L 713.20 994.60 L 716.90 1004.40 L 720.20 1014.20 L 722.80 1023.50 L 724.20 1029.80 L 725.70 1040.90 L 725.90 1046.30 L 725.60 1051.00 L 724.80 1055.00 L 723.90 1057.90 L 722.70 1060.40 L 721.10 1062.50 L 719.30 1064.20 L 717.20 1065.50 L 714.70 1066.40 L 711.70 1066.90 L 708.20 1066.90 L 693.40 1065.70 L 678.50 1064.10 L 663.70 1062.00 L 648.80 1059.50 L 634.00 1056.60 L 619.30 1053.10 L 604.40 1049.10 L 589.60 1044.60 L 575.00 1039.50 L 560.30 1033.70 L 545.50 1027.20 L 530.70 1020.00 L 519.10 1013.80 L 507.50 1007.20 L 495.90 999.90 L 484.10 992.10 L 472.20 983.70 L 460.90 975.10 L 449.50 965.90 L 437.90 956.00 L 426.30 945.30 L 414.50 933.90 L 405.00 924.00 L 396.30 914.30 L 388.50 904.70 L 381.30 895.30 L 374.90 886.00 L 368.70 876.10 L 363.20 866.50 L 358.30 856.90 L 354.00 847.50 L 350.40 838.30 L 347.10 828.70 L 344.50 819.20 L 342.30 809.90 L 340.70 800.70 L 339.60 791.60 L 338.90 782.40 L 338.70 773.30 L 339.00 764.30 L 339.80 755.50 L 340.90 746.70 L 342.60 738.00 L 344.60 729.40 L 347.00 721.00 L 349.80 712.70 L 353.00 704.50 L 357.60 694.50 L 362.60 684.70 L 368.20 675.10 L 374.40 665.80 L 380.90 656.80 L 388.00 648.00 L 395.50 639.60 L 403.40 631.40 L 413.10 622.30 L 422.50 614.10 L 431.80 606.80 L 440.90 600.30 L 449.80 594.50 L 459.40 589.10 L 468.80 584.30 L 478.10 580.30 L 487.20 576.90 L 496.40 574.10 L 505.80 571.90 L 515.10 570.20 L 524.40 569.10 L 533.80 568.60 L 543.10 568.60 L 552.40 569.10 L 561.70 570.20 L 571.00 571.70 L 580.50 573.80 L 590.00 576.30 L 608.50 582.70 L 618.00 586.60 L 637.10 595.80 L 648.70 602.20 L 660.40 609.20 L 672.30 616.90 L 684.40 625.30 L 707.90 643.20 L 732.00 663.50 Z" fill="#ffd9db" fill-rule="nonzero" group-id="1" id="Shape" node-id="27" stroke="none" target-height="498.30005" target-width="529.39996" target-x="338.7" target-y="568.6"/><g node-id="40"><path d="M 412.30 416.40 L 411.50 425.60 L 409.40 434.10 L 407.30 439.60 L 404.60 444.70 L 401.50 449.50 L 397.80 454.00 L 393.80 458.00 L 389.30 461.70 L 384.50 464.80 L 379.40 467.50 L 373.90 469.60 L 369.70 470.90 L 360.90 472.30 L 356.20 472.50 L 347.10 471.70 L 338.50 469.60 L 333.00 467.50 L 327.90 464.80 L 323.10 461.70 L 318.60 458.00 L 314.60 454.00 L 311.00 449.50 L 307.80 444.70 L 305.20 439.60 L 303.00 434.10 L 301.80 429.90 L 300.30 421.10 L 300.30 411.80 L 300.90 407.30 L 303.00 398.70 L 305.20 393.20 L 307.80 388.10 L 311.00 383.30 L 314.60 378.90 L 318.60 374.80 L 323.10 371.20 L 327.90 368.00 L 333.00 365.40 L 338.50 363.20 L 342.70 362.00 L 351.60 360.60 L 356.20 360.40 L 360.90 360.60 L 369.70 362.00 L 373.90 363.20 L 379.40 365.40 L 384.50 368.00 L 389.30 371.20 L 393.80 374.80 L 397.80 378.90 L 401.50 383.30 L 404.60 388.10 L 407.30 393.20 L 409.40 398.70 L 411.50 407.30 L 412.30 416.40 Z" fill="#edb4b8" fill-opacity="0.43" fill-rule="nonzero" group-id="1,5" id="Oval" node-id="28" stroke="none" target-height="112.100006" target-width="112" target-x="300.3" target-y="360.4"/></g><g node-id="41"><path d="M 984.90 340.80 L 988.40 346.90 L 991.90 354.00 L 995.40 362.10 L 998.80 371.30 L 1001.60 380.30 L 1006.90 401.00 L 1009.30 412.70 L 1013.00 436.40 L 1015.90 463.00 L 1017.10 481.20 L 1017.70 500.40 L 1017.90 520.60 L 1017.40 540.80 L 1016.40 561.80 L 1014.70 583.60 L 1011.00 616.30 L 1008.50 633.10 L 1002.50 667.00 L 994.80 701.20 L 990.30 718.50 L 985.40 735.60 L 980.00 752.70 L 974.20 769.80 L 967.90 786.80 L 961.10 803.70 L 953.90 820.40 L 946.10 837.00 L 937.80 853.40 L 935.80 856.90 L 934.80 858.20 L 934.30 858.50 L 934.00 858.30 L 933.80 854.90 L 934.50 849.60 L 943.30 798.00 L 946.10 779.80 L 949.00 758.70 L 951.50 736.80 L 953.70 712.70 L 954.90 696.30 L 956.20 661.60 L 956.30 643.90 L 956.00 625.80 L 955.10 607.30 L 953.70 588.90 L 951.80 570.30 L 949.10 551.50 L 946.70 537.50 L 943.90 523.60 L 940.60 509.70 L 936.90 495.90 L 932.80 482.20 L 928.10 468.70 L 922.90 455.40 L 917.20 442.20 L 912.30 431.90 L 906.90 421.70 L 901.20 411.70 L 895.10 401.90 L 888.60 392.20 L 884.30 386.40 L 875.10 376.10 L 870.20 371.40 L 863.30 365.60 L 856.20 360.30 L 849.00 355.50 L 834.10 347.00 L 815.80 338.40 L 786.70 326.60 L 778.50 323.10 L 772.30 320.00 L 768.50 317.70 L 765.80 315.40 L 764.00 313.30 L 763.10 311.50 L 762.70 309.60 L 762.80 307.60 L 763.60 305.50 L 766.50 301.20 L 772.90 295.50 L 777.10 292.50 L 781.80 289.70 L 787.00 287.10 L 792.80 284.70 L 800.50 282.00 L 809.00 279.70 L 818.10 277.90 L 827.40 276.60 L 837.10 275.80 L 847.20 275.50 L 857.30 275.70 L 867.70 276.50 L 878.20 277.80 L 888.60 279.60 L 898.90 282.10 L 909.20 285.10 L 924.20 290.80 L 938.50 297.80 L 945.40 301.90 L 952.00 306.30 L 958.30 311.10 L 964.40 316.30 L 970.10 321.80 L 975.40 327.70 L 980.30 334.00 L 984.90 340.80 Z" fill="#6e6e96" fill-opacity="0.15" fill-rule="nonzero" group-id="1,6" id="Shape" node-id="29" stroke="none" target-height="583" target-width="255.20001" target-x="762.7" target-y="275.5"/></g><path d="M 383.00 417.70 L 382.70 421.20 L 382.10 424.50 L 381.00 427.60 L 379.50 430.60 L 377.70 433.30 L 375.50 435.70 L 373.00 437.90 L 370.40 439.70 L 367.40 441.20 L 364.30 442.30 L 361.00 443.00 L 357.50 443.20 L 354.00 443.00 L 350.70 442.30 L 347.50 441.20 L 344.60 439.70 L 341.90 437.90 L 339.40 435.70 L 337.30 433.30 L 335.40 430.60 L 334.00 427.60 L 332.90 424.50 L 332.20 421.20 L 331.90 417.70 L 332.20 414.20 L 332.90 410.90 L 334.00 407.70 L 335.40 404.80 L 337.30 402.10 L 339.40 399.60 L 341.90 397.50 L 344.60 395.70 L 347.50 394.20 L 350.70 393.10 L 354.00 392.40 L 357.50 392.20 L 361.00 392.40 L 364.30 393.10 L 367.40 394.20 L 370.40 395.70 L 373.00 397.50 L 375.50 399.60 L 377.70 402.10 L 379.50 404.80 L 381.00 407.70 L 382.10 410.90 L 382.70 414.20 L 383.00 417.70 Z" fill="#6e6e96" fill-rule="nonzero" group-id="1" id="Oval" node-id="30" stroke="none" target-height="51" target-width="51.100006" target-x="331.9" target-y="392.2"/><g node-id="42"><path d="M 11.80 527.90 L 33.40 525.20 L 56.60 521.80 L 84.80 517.00 L 115.40 510.90 L 131.00 507.30 L 156.10 500.50 L 174.30 494.50 L 183.00 491.10 L 190.70 487.70 L 197.50 484.20 L 202.50 481.30 L 210.30 475.40 L 213.20 472.60 L 215.40 470.00 L 217.00 467.40 L 218.10 464.80 L 218.80 462.20 L 219.00 459.60 L 218.80 455.80 L 217.90 452.10 L 216.60 448.50 L 214.70 444.80 L 212.40 441.50 L 209.60 438.30 L 206.30 435.20 L 202.40 432.10 L 198.40 429.50 L 194.00 427.10 L 189.10 424.90 L 183.70 423.00 L 178.30 421.40 L 172.60 420.20 L 166.50 419.40 L 159.90 418.90 L 153.50 418.80 L 146.80 419.20 L 139.70 420.00 L 132.40 421.40 L 125.20 423.10 L 117.90 425.50 L 110.30 428.40 L 102.40 432.00 L 94.90 436.00 L 87.30 440.60 L 79.40 446.00 L 71.40 452.30 L 63.90 458.80 L 56.30 466.20 L 48.60 474.50 L 40.80 483.70 L 35.00 491.20 L 23.50 508.10 L 11.80 527.90 Z" fill="#fff59f" fill-opacity="0.51" fill-rule="nonzero" group-id="1,7" id="Shape" node-id="31" stroke="none" target-height="109.10004" target-width="207.2" target-x="11.8" target-y="418.8"/></g><path d="M 145.40 576.50 L 139.40 589.00 L 136.80 595.00 L 131.30 610.20 L 128.80 618.90 L 126.70 627.70 L 125.20 636.90 L 124.60 643.00 L 124.40 649.10 L 124.60 655.10 L 125.20 661.00 L 126.50 666.70 L 128.30 672.10 L 130.00 676.00 L 132.10 679.70 L 134.70 683.20 L 137.60 686.60 L 140.80 689.40 L 143.80 691.50 L 146.80 693.10 L 149.70 694.20 L 152.60 694.90 L 155.60 695.10 L 158.60 694.90 L 161.50 694.30 L 164.50 693.30 L 167.60 691.90 L 171.10 689.60 L 174.50 686.90 L 178.00 683.40 L 181.50 679.30 L 187.60 670.20 L 193.30 658.80 L 196.50 650.70 L 199.30 641.90 L 201.80 632.20 L 203.60 622.40 L 205.00 612.00 L 205.80 601.10 L 205.90 592.90 L 205.20 576.00 L 204.20 567.30 L 205.10 572.10 L 207.50 585.10 L 210.50 604.60 L 213.30 628.70 L 214.40 641.80 L 215.20 655.50 L 215.50 669.40 L 215.30 683.30 L 213.90 701.50 L 212.80 710.20 L 211.20 718.80 L 209.30 726.80 L 207.00 734.30 L 204.90 739.80 L 202.50 744.80 L 199.90 749.50 L 197.00 753.70 L 193.80 757.70 L 190.20 761.20 L 186.40 764.20 L 182.20 766.80 L 178.70 768.40 L 174.90 769.70 L 170.80 770.70 L 166.40 771.30 L 161.60 771.50 L 156.80 771.20 L 152.10 770.30 L 147.30 768.80 L 142.40 766.60 L 137.80 764.00 L 133.20 760.90 L 128.70 757.30 L 124.20 753.10 L 116.00 743.80 L 112.20 738.60 L 105.10 727.00 L 99.10 714.50 L 96.60 707.80 L 92.50 694.10 L 91.10 687.00 L 90.00 679.80 L 89.30 672.60 L 89.10 665.30 L 89.40 658.10 L 90.10 650.80 L 91.40 643.60 L 93.20 636.60 L 95.50 629.60 L 98.50 622.70 L 101.20 617.40 L 104.30 612.20 L 107.90 607.10 L 111.90 602.20 L 116.40 597.30 L 121.10 592.80 L 126.30 588.50 L 132.00 584.40 L 138.40 580.40 L 145.40 576.50 Z" fill="#6e6e96" fill-opacity="0.15" fill-rule="nonzero" group-id="1,8" id="Shape" node-id="32" stroke="none" target-height="204.20001" target-width="126.4" target-x="89.1" target-y="567.3"/></g></svg>
